<svg width="250" height="54" viewBox="0 0 250 54" fill="none" xmlns="http://www.w3.org/2000/svg">
<path d="M0 53.8987L8.51392 0.097168H23.5473L14.9967 53.8987H0Z" fill="#F6B426"/>
<path d="M83.9272 0.097168L81.7528 13.7349H72.8385L66.4953 53.9023H51.3921L57.728 13.7349H50.6134L44.2776 53.9023H29.1707L35.5102 13.7349H26.5519L28.7263 0.097168H83.9272Z" fill="#F6B426"/>
<path d="M103.339 1.86377H106.52V18.9981H103.339V1.86377Z" fill="white"/>
<path d="M124.021 11.5091V18.9983H120.962V11.8984C120.962 9.57346 119.812 8.44586 117.854 8.44586C115.676 8.44586 114.207 9.76813 114.207 12.3869V18.9946H111.147V5.92622H114.06V7.61578C115.063 6.41472 116.653 5.7793 118.563 5.7793C121.696 5.7793 124.021 7.56435 124.021 11.5054V11.5091Z" fill="white"/>
<path d="M131.58 5.24278V6.02512H135.18V8.47131H131.679V18.9943H128.62V8.47131H126.467V6.02512H128.62V5.19136C128.62 2.45133 130.258 0.662598 133.295 0.662598C134.349 0.662598 135.374 0.882975 136.061 1.37148L135.205 3.67075C134.739 3.3512 134.151 3.13083 133.516 3.13083C132.245 3.13083 131.584 3.83971 131.584 5.23543L131.58 5.24278Z" fill="white"/>
<path d="M136.256 12.4604C136.256 8.54503 139.194 5.7793 143.209 5.7793C147.223 5.7793 150.184 8.54503 150.184 12.4604C150.184 16.3758 147.271 19.1672 143.209 19.1672C139.146 19.1672 136.256 16.3758 136.256 12.4604ZM147.098 12.4604C147.098 9.9628 145.435 8.37241 143.205 8.37241C140.976 8.37241 139.337 9.9628 139.337 12.4604C139.337 14.958 141.001 16.5484 143.205 16.5484C145.409 16.5484 147.098 14.958 147.098 12.4604Z" fill="white"/>
<path d="M152.993 10.9214H159.726V13.4667H152.993V10.9214Z" fill="white"/>
<path d="M166.286 4.55605H160.608V1.86377H175.145V4.55605H169.467V18.9981H166.286V4.55605Z" fill="white"/>
<path d="M184.787 5.7793V8.69195C184.518 8.6442 184.298 8.61849 184.078 8.61849C181.753 8.61849 180.284 9.98851 180.284 12.6587V18.9983H177.224V5.92622H180.137V7.83615C181.018 6.46614 182.609 5.7793 184.787 5.7793Z" fill="white"/>
<path d="M198.542 11.3362V18.998H195.655V17.4076C194.92 18.5352 193.502 19.1707 191.541 19.1707C188.555 19.1707 186.671 17.5325 186.671 15.2553C186.671 12.978 188.14 11.3619 192.103 11.3619H195.482V11.1673C195.482 9.38221 194.406 8.32808 192.228 8.32808C190.759 8.32808 189.242 8.81658 188.261 9.62463L187.06 7.39882C188.456 6.32264 190.487 5.78271 192.592 5.78271C196.36 5.78271 198.538 7.56777 198.538 11.3399L198.542 11.3362ZM195.482 14.91V13.3931H192.323C190.245 13.3931 189.679 14.1754 189.679 15.1304C189.679 16.2323 190.608 16.9412 192.177 16.9412C193.745 16.9412 194.968 16.2543 195.482 14.91Z" fill="white"/>
<path d="M215.625 11.5091V18.9983H212.565V11.8984C212.565 9.57346 211.416 8.44586 209.458 8.44586C207.28 8.44586 205.811 9.76813 205.811 12.3869V18.9946H202.751V5.92622H205.664V7.61578C206.666 6.41472 208.257 5.7793 210.167 5.7793C213.3 5.7793 215.625 7.56435 215.625 11.5054V11.5091Z" fill="white"/>
<path d="M218.313 17.698L219.489 15.3731C220.638 16.1334 222.401 16.6696 224.04 16.6696C225.975 16.6696 226.78 16.1297 226.78 15.2261C226.78 12.7285 218.703 15.0792 218.703 9.8673C218.703 7.3954 220.929 5.7793 224.455 5.7793C226.192 5.7793 228.175 6.19434 229.351 6.9069L228.175 9.23188C226.926 8.49729 225.678 8.2512 224.429 8.2512C222.57 8.2512 221.689 8.86458 221.689 9.72038C221.689 12.3649 229.766 10.0142 229.766 15.1306C229.766 17.5768 227.514 19.1709 223.841 19.1709C221.663 19.1709 219.485 18.5355 218.31 17.7017L218.313 17.698Z" fill="white"/>
<path d="M232.289 1.93707C232.289 0.908637 233.123 0.100586 234.247 0.100586C235.371 0.100586 236.204 0.860888 236.204 1.86361C236.204 2.93978 235.396 3.77355 234.247 3.77355C233.097 3.77355 232.289 2.96549 232.289 1.93707ZM232.704 5.9259H235.764V18.998H232.704V5.9259Z" fill="white"/>
<path d="M247.928 18.2853C247.194 18.873 246.092 19.1668 244.99 19.1668C242.125 19.1668 240.487 17.6499 240.487 14.7592V8.46746H238.335V6.02127H240.487V3.03516H243.547V6.02127H247.047V8.46746H243.547V14.6858C243.547 15.9603 244.182 16.6435 245.357 16.6435C245.993 16.6435 246.606 16.4708 247.069 16.1035L247.925 18.2816L247.928 18.2853Z" fill="white"/>
<path d="M116.19 40.2422L114.038 38.1633C112.495 39.4855 110.538 40.2201 108.286 40.2201C104.665 40.2201 102.046 38.3359 102.046 35.6436C102.046 33.5133 103.221 32.0221 106.013 30.4537C104.617 29.058 104.103 27.9341 104.103 26.6853C104.103 24.2868 106.06 22.645 109.072 22.645C111.838 22.645 113.649 24.0885 113.649 26.4135C113.649 28.1765 112.62 29.4473 110.148 30.8431L113.843 34.3691C114.258 33.5611 114.578 32.584 114.798 31.4822L117.27 32.2902C116.951 33.7851 116.437 35.1037 115.728 36.2056L117.88 38.2624L116.19 40.2458V40.2422ZM112.224 36.426L107.695 32.0919C105.712 33.1938 105.028 34.0973 105.028 35.3241C105.028 36.7418 106.398 37.7225 108.503 37.7225C109.924 37.7225 111.17 37.2818 112.224 36.426ZM106.887 26.6339C106.887 27.3942 107.206 27.9561 108.43 29.1792C110.413 28.103 111.048 27.3942 111.048 26.4612C111.048 25.4805 110.339 24.8231 109.065 24.8231C107.695 24.8231 106.887 25.5834 106.887 26.6339Z" fill="white"/>
<path d="M131.433 25.5326H125.755V22.8403H140.292V25.5326H134.614V39.9747H131.433V25.5326Z" fill="white"/>
<path d="M149.938 26.7593V29.6719C149.669 29.6242 149.449 29.5985 149.229 29.5985C146.904 29.5985 145.435 30.9685 145.435 33.6387V39.9783H142.375V26.9062H145.288V28.8161C146.169 27.4461 147.76 26.7593 149.938 26.7593Z" fill="white"/>
<path d="M163.693 32.3128V39.9746H160.806V38.3842C160.071 39.5118 158.653 40.1472 156.692 40.1472C153.706 40.1472 151.822 38.5091 151.822 36.2318C151.822 33.9546 153.291 32.3385 157.254 32.3385H160.633V32.1438C160.633 30.3588 159.557 29.3046 157.379 29.3046C155.91 29.3046 154.393 29.7931 153.412 30.6012L152.211 28.3754C153.607 27.2992 155.638 26.7593 157.743 26.7593C161.511 26.7593 163.689 28.5443 163.689 32.3165L163.693 32.3128ZM160.633 35.8866V34.3696H157.474C155.396 34.3696 154.83 35.152 154.83 36.107C154.83 37.2088 155.759 37.9177 157.328 37.9177C158.896 37.9177 160.119 37.2309 160.633 35.8866Z" fill="white"/>
<path d="M180.776 32.4854V39.9746H177.716V32.8748C177.716 30.5498 176.567 29.4222 174.609 29.4222C172.431 29.4222 170.962 30.7445 170.962 33.3633V39.9709H167.902V26.8989H170.815V28.5884C171.817 27.3874 173.408 26.752 175.318 26.752C178.451 26.752 180.776 28.537 180.776 32.4781V32.4854Z" fill="white"/>
<path d="M183.464 38.678L184.64 36.353C185.789 37.1133 187.552 37.6496 189.191 37.6496C191.126 37.6496 191.931 37.1097 191.931 36.2061C191.931 33.7085 183.854 36.0592 183.854 30.8473C183.854 28.3754 186.08 26.7593 189.606 26.7593C191.343 26.7593 193.326 27.1743 194.502 27.8869L193.326 30.2119C192.077 29.4773 190.829 29.2312 189.58 29.2312C187.721 29.2312 186.84 29.8446 186.84 30.7004C186.84 33.3449 194.917 30.9942 194.917 36.1106C194.917 38.5568 192.665 40.1509 188.992 40.1509C186.814 40.1509 184.636 39.5155 183.461 38.6817L183.464 38.678Z" fill="white"/>
<path d="M211.731 33.4404C211.731 37.5027 208.918 40.1472 205.098 40.1472C203.434 40.1472 201.965 39.5853 200.911 38.3842V44.7237H197.851V26.9062H200.764V28.6178C201.792 27.369 203.309 26.7593 205.098 26.7593C208.918 26.7593 211.731 29.4038 211.731 33.4404ZM208.624 33.4404C208.624 30.9428 206.96 29.3524 204.756 29.3524C202.553 29.3524 200.863 30.9428 200.863 33.4404C200.863 35.938 202.553 37.5284 204.756 37.5284C206.96 37.5284 208.624 35.938 208.624 33.4404Z" fill="white"/>
<path d="M213.862 33.4404C213.862 29.525 216.8 26.7593 220.815 26.7593C224.829 26.7593 227.79 29.525 227.79 33.4404C227.79 37.3558 224.877 40.1472 220.815 40.1472C216.752 40.1472 213.862 37.3558 213.862 33.4404ZM224.704 33.4404C224.704 30.9428 223.04 29.3524 220.811 29.3524C218.581 29.3524 216.943 30.9428 216.943 33.4404C216.943 35.938 218.607 37.5284 220.811 37.5284C223.015 37.5284 224.704 35.938 224.704 33.4404Z" fill="white"/>
<path d="M238.581 26.7593V29.6719C238.313 29.6242 238.092 29.5985 237.872 29.5985C235.547 29.5985 234.078 30.9685 234.078 33.6387V39.9783H231.018V26.9062H233.931V28.8161C234.812 27.4461 236.403 26.7593 238.581 26.7593Z" fill="white"/>
<path d="M249.813 39.2653C249.078 39.8529 247.976 40.1468 246.874 40.1468C244.009 40.1468 242.371 38.6298 242.371 35.7392V29.4474H240.219V27.0013H242.371V24.0151H245.431V27.0013H248.931V29.4474H245.431V35.6658C245.431 36.9403 246.066 37.6234 247.242 37.6234C247.877 37.6234 248.49 37.4508 248.953 37.0835L249.809 39.2616L249.813 39.2653Z" fill="white"/>
<path d="M102.042 51.1949V48.7598H102.49V51.1766C102.49 52.183 102.964 52.6458 103.79 52.6458C104.617 52.6458 105.094 52.183 105.094 51.1766V48.7598H105.531V51.1949C105.531 52.4144 104.874 53.0461 103.79 53.0461C102.707 53.0461 102.042 52.4144 102.042 51.1949Z" fill="white"/>
<path d="M110.512 48.7598V53.0094H110.141L107.408 49.5605V53.0094H106.96V48.7598H107.331L110.071 52.2087V48.7598H110.516H110.512Z" fill="white"/>
<path d="M111.967 48.7598H112.415V52.62H114.795V53.0094H111.967V48.7598Z" fill="white"/>
<path d="M115.155 50.8868C115.155 49.649 116.102 48.7271 117.388 48.7271C118.673 48.7271 119.617 49.6453 119.617 50.8868C119.617 52.1282 118.662 53.0465 117.388 53.0465C116.113 53.0465 115.155 52.1245 115.155 50.8868ZM119.166 50.8868C119.166 49.873 118.405 49.1274 117.388 49.1274C116.37 49.1274 115.595 49.873 115.595 50.8868C115.595 51.9005 116.359 52.6461 117.388 52.6461C118.416 52.6461 119.166 51.9005 119.166 50.8868Z" fill="white"/>
<path d="M120.319 50.8868C120.319 49.6416 121.266 48.7271 122.548 48.7271C123.169 48.7271 123.727 48.9327 124.102 49.3478L123.816 49.6343C123.47 49.2817 123.044 49.1311 122.559 49.1311C121.535 49.1311 120.763 49.884 120.763 50.8904C120.763 51.8968 121.535 52.6498 122.559 52.6498C123.044 52.6498 123.47 52.4992 123.816 52.1392L124.102 52.4257C123.727 52.8371 123.165 53.0501 122.541 53.0501C121.266 53.0501 120.319 52.1319 120.319 50.8904V50.8868Z" fill="white"/>
<path d="M126.453 51.0113L125.586 51.8928V53.0094H125.138V48.7598H125.586V51.3272L128.08 48.7598H128.594L126.754 50.6844L128.723 53.0094H128.19L126.453 51.0113Z" fill="white"/>
<path d="M129.523 48.7598H129.971V53.0094H129.523V48.7598Z" fill="white"/>
<path d="M134.981 48.7598V53.0094H134.61L131.878 49.5605V53.0094H131.43V48.7598H131.801L134.541 52.2087V48.7598H134.985H134.981Z" fill="white"/>
<path d="M139.429 50.8868H139.859V52.5065C139.459 52.8665 138.889 53.0465 138.298 53.0465C137.005 53.0465 136.057 52.1282 136.057 50.8868C136.057 49.6453 137.005 48.7271 138.305 48.7271C138.948 48.7271 139.506 48.9327 139.885 49.3404L139.605 49.6269C139.246 49.2743 138.823 49.1274 138.324 49.1274C137.273 49.1274 136.502 49.873 136.502 50.8868C136.502 51.9005 137.273 52.6461 138.316 52.6461C138.724 52.6461 139.099 52.5543 139.425 52.3192V50.8868H139.429Z" fill="white"/>
<path d="M142.867 48.7598H143.315V52.62H145.695V53.0094H142.867V48.7598Z" fill="white"/>
<path d="M146.052 50.8868C146.052 49.649 146.999 48.7271 148.285 48.7271C149.57 48.7271 150.514 49.6453 150.514 50.8868C150.514 52.1282 149.559 53.0465 148.285 53.0465C147.01 53.0465 146.052 52.1245 146.052 50.8868ZM150.066 50.8868C150.066 49.873 149.306 49.1274 148.288 49.1274C147.271 49.1274 146.496 49.873 146.496 50.8868C146.496 51.9005 147.26 52.6461 148.288 52.6461C149.317 52.6461 150.066 51.9005 150.066 50.8868Z" fill="white"/>
<path d="M154.588 50.8868H155.017V52.5065C154.617 52.8665 154.048 53.0465 153.456 53.0465C152.163 53.0465 151.216 52.1282 151.216 50.8868C151.216 49.6453 152.163 48.7271 153.464 48.7271C154.106 48.7271 154.665 48.9327 155.043 49.3404L154.764 49.6269C154.404 49.2743 153.982 49.1274 153.482 49.1274C152.432 49.1274 151.66 49.873 151.66 50.8868C151.66 51.9005 152.432 52.6461 153.475 52.6461C153.882 52.6461 154.257 52.5543 154.584 52.3192V50.8868H154.588Z" fill="white"/>
<path d="M156.362 48.7598H156.81V53.0094H156.362V48.7598Z" fill="white"/>
<path d="M157.86 52.4955L158.036 52.1503C158.341 52.4478 158.881 52.6645 159.439 52.6645C160.237 52.6645 160.582 52.3302 160.582 51.9115C160.582 50.7472 157.967 51.4634 157.967 49.8914C157.967 49.267 158.451 48.7271 159.531 48.7271C160.012 48.7271 160.508 48.8666 160.85 49.1017L160.699 49.4616C160.336 49.2266 159.91 49.109 159.535 49.109C158.756 49.109 158.411 49.4543 158.411 49.8804C158.411 51.0447 161.026 50.3432 161.026 51.8895C161.026 52.5139 160.527 53.0501 159.443 53.0501C158.804 53.0501 158.18 52.8261 157.864 52.4992L157.86 52.4955Z" fill="white"/>
<path d="M162.837 49.1491H161.342V48.7598H164.78V49.1491H163.285V53.0094H162.837V49.1491Z" fill="white"/>
<path d="M165.57 48.7598H166.018V53.0094H165.57V48.7598Z" fill="white"/>
<path d="M167.101 50.8868C167.101 49.6416 168.049 48.7271 169.331 48.7271C169.952 48.7271 170.51 48.9327 170.884 49.3478L170.598 49.6343C170.253 49.2817 169.827 49.1311 169.342 49.1311C168.317 49.1311 167.546 49.884 167.546 50.8904C167.546 51.8968 168.317 52.6498 169.342 52.6498C169.827 52.6498 170.253 52.4992 170.598 52.1392L170.884 52.4257C170.51 52.8371 169.948 53.0501 169.323 53.0501C168.049 53.0501 167.101 52.1319 167.101 50.8904V50.8868Z" fill="white"/>
<path d="M171.483 52.4955L171.659 52.1503C171.964 52.4478 172.504 52.6645 173.063 52.6645C173.86 52.6645 174.205 52.3302 174.205 51.9115C174.205 50.7472 171.59 51.4634 171.59 49.8914C171.59 49.267 172.074 48.7271 173.154 48.7271C173.636 48.7271 174.131 48.8666 174.473 49.1017L174.322 49.4616C173.959 49.2266 173.533 49.109 173.158 49.109C172.379 49.109 172.034 49.4543 172.034 49.8804C172.034 51.0447 174.649 50.3432 174.649 51.8895C174.649 52.5139 174.15 53.0501 173.066 53.0501C172.427 53.0501 171.803 52.8261 171.487 52.4992L171.483 52.4955Z" fill="white"/>
<path d="M180.688 50.2179C180.688 51.1215 180.03 51.6687 178.95 51.6687H177.808V53.0094H177.36V48.7598H178.95C180.03 48.7598 180.688 49.307 180.688 50.2179ZM180.236 50.2179C180.236 49.5384 179.788 49.1491 178.936 49.1491H177.808V51.2757H178.936C179.784 51.2757 180.236 50.8864 180.236 50.2179Z" fill="white"/>
<path d="M181.415 50.8868C181.415 49.649 182.363 48.7271 183.648 48.7271C184.934 48.7271 185.878 49.6453 185.878 50.8868C185.878 52.1282 184.923 53.0465 183.648 53.0465C182.374 53.0465 181.415 52.1245 181.415 50.8868ZM185.429 50.8868C185.429 49.873 184.669 49.1274 183.652 49.1274C182.634 49.1274 181.859 49.873 181.859 50.8868C181.859 51.9005 182.623 52.6461 183.652 52.6461C184.68 52.6461 185.429 51.9005 185.429 50.8868Z" fill="white"/>
<path d="M187.721 49.1491H186.226V48.7598H189.664V49.1491H188.169V53.0094H187.721V49.1491Z" fill="white"/>
<path d="M193.458 52.62V53.0094H190.454V48.7598H193.367V49.1491H190.902V50.6624H193.098V51.0443H190.902V52.6237H193.458V52.62Z" fill="white"/>
<path d="M198.138 48.7598V53.0094H197.767L195.034 49.5605V53.0094H194.586V48.7598H194.957L197.697 52.2087V48.7598H198.141H198.138Z" fill="white"/>
<path d="M200.422 49.1491H198.927V48.7598H202.365V49.1491H200.871V53.0094H200.422V49.1491Z" fill="white"/>
<path d="M203.155 48.7598H203.603V53.0094H203.155V48.7598Z" fill="white"/>
<path d="M207.724 51.8744H205.355L204.845 53.0094H204.378L206.321 48.7598H206.766L208.709 53.0094H208.235L207.724 51.8744ZM207.559 51.5108L206.538 49.2262L205.517 51.5108H207.555H207.559Z" fill="white"/>
<path d="M209.484 48.7598H209.932V52.62H212.312V53.0094H209.484V48.7598Z" fill="white"/>
<path d="M213.594 52.7087C213.594 52.8116 213.568 52.8924 213.509 53.0613L213.256 53.8988H212.966L213.171 53.0173C213.043 52.9805 212.951 52.8667 212.951 52.7087C212.951 52.5214 213.09 52.3818 213.274 52.3818C213.458 52.3818 213.597 52.5288 213.597 52.7087H213.594Z" fill="white"/>
<path d="M217.164 49.1491H215.669V48.7598H219.107V49.1491H217.612V53.0094H217.164V49.1491Z" fill="white"/>
<path d="M219.459 50.8868C219.459 49.649 220.407 48.7271 221.693 48.7271C222.978 48.7271 223.922 49.6453 223.922 50.8868C223.922 52.1282 222.967 53.0465 221.693 53.0465C220.418 53.0465 219.459 52.1245 219.459 50.8868ZM223.474 50.8868C223.474 49.873 222.714 49.1274 221.696 49.1274C220.679 49.1274 219.904 49.873 219.904 50.8868C219.904 51.9005 220.668 52.6461 221.696 52.6461C222.725 52.6461 223.474 51.9005 223.474 50.8868Z" fill="white"/>
<path d="M227.995 50.8868H228.425V52.5065C228.025 52.8665 227.455 53.0465 226.864 53.0465C225.571 53.0465 224.624 52.1282 224.624 50.8868C224.624 49.6453 225.571 48.7271 226.871 48.7271C227.514 48.7271 228.072 48.9327 228.451 49.3404L228.172 49.6269C227.812 49.2743 227.389 49.1274 226.89 49.1274C225.839 49.1274 225.068 49.873 225.068 50.8868C225.068 51.9005 225.839 52.6461 226.882 52.6461C227.29 52.6461 227.665 52.5543 227.992 52.3192V50.8868H227.995Z" fill="white"/>
<path d="M232.774 52.62V53.0094H229.769V48.7598H232.682V49.1491H230.217V50.6624H232.414V51.0443H230.217V52.6237H232.774V52.62Z" fill="white"/>
<path d="M234.728 49.1491H233.233V48.7598H236.671V49.1491H235.176V53.0094H234.728V49.1491Z" fill="white"/>
<path d="M241.009 48.7598V53.0094H240.564V51.048H237.905V53.0094H237.457V48.7598H237.905V50.655H240.564V48.7598H241.009Z" fill="white"/>
<path d="M245.471 52.62V53.0094H242.467V48.7598H245.379V49.1491H242.915V50.6624H245.111V51.0443H242.915V52.6237H245.471V52.62Z" fill="white"/>
<path d="M249.504 53.0094L248.534 51.643C248.424 51.6541 248.314 51.6614 248.193 51.6614H247.051V53.0094H246.603V48.7598H248.193C249.273 48.7598 249.93 49.307 249.93 50.2179C249.93 50.8864 249.578 51.3529 248.961 51.5549L250 53.0131H249.508L249.504 53.0094ZM249.478 50.2179C249.478 49.5384 249.03 49.1491 248.178 49.1491H247.051V51.2794H248.178C249.027 51.2794 249.478 50.8864 249.478 50.2179Z" fill="white"/>
</svg>
